<svg data-v-423bf9ae="" xmlns="http://www.w3.org/2000/svg" viewBox="0 0 275.24095452840663 163" class="iconAbove"><!----><!----><!----><g data-v-423bf9ae="" id="32702087-be41-4683-85c3-fc9bf586b5f4" fill="black" transform="matrix(6.024096362469775,0,0,6.024096362469775,-7.951810559317636,71.43373500895314)"><path d="M10.50 13.58L10.47 5.56C10.46 5.36 10.25 5.24 9.97 5.24C9.86 5.24 9.66 5.25 9.49 5.32C8.39 7.60 7.15 10.28 6.02 12.61C4.77 10.25 3.51 7.83 2.27 5.42C2.17 5.29 2.04 5.24 1.85 5.24C1.55 5.24 1.40 5.29 1.32 5.38C1.37 5.70 1.40 6.16 1.40 6.79L1.41 14.73C1.41 14.99 1.51 15.16 1.75 15.16C1.90 15.16 2.03 15.09 2.11 15.01C2.02 14.69 1.97 14.14 1.97 13.58L1.96 6.55C3.11 8.81 4.34 11.20 5.53 13.36C5.77 13.48 6.03 13.47 6.33 13.34L9.66 6.48L9.69 14.67C9.69 14.98 9.87 15.16 10.15 15.16C10.39 15.16 10.54 15.05 10.64 14.97C10.53 14.63 10.50 14.14 10.50 13.58ZM18.02 13.30C17.75 14.17 16.87 14.57 15.88 14.57C14.62 14.57 13.52 13.90 13.43 11.76C13.92 11.83 14.41 11.87 14.99 11.87C17.04 11.87 18.23 11.16 18.23 9.76C18.23 8.47 17.23 7.78 15.79 7.78C13.66 7.78 12.54 9.24 12.54 11.55C12.54 13.96 13.75 15.20 15.71 15.20C16.84 15.20 17.78 14.78 18.13 13.96C18.31 13.52 18.19 13.37 18.02 13.30ZM15.75 8.23C16.52 8.23 17.35 8.55 17.35 9.67C17.35 10.98 16.31 11.44 14.81 11.44C14.38 11.42 13.86 11.40 13.43 11.34C13.45 9.27 14.39 8.23 15.75 8.23ZM19.68 11.13L19.68 11.72L23.77 11.72L23.77 11.13ZM26.22 15.16C26.46 15.16 26.67 14.95 26.66 14.63L26.52 6.72C27.80 8.81 30.48 13.09 32.07 15.11C32.23 15.18 32.58 15.13 32.68 15.01C32.63 14.69 32.63 14.22 32.63 13.59L32.62 6.01C32.62 5.74 32.56 5.45 32.51 5.29C32.35 5.25 32.21 5.28 32.10 5.32C31.96 5.49 31.89 5.95 31.92 6.55L32.07 13.80C30.76 11.69 27.97 7.42 26.54 5.33C26.46 5.25 26.03 5.22 25.84 5.38C25.91 5.70 25.94 6.27 25.94 6.90L25.96 13.58C25.96 14.13 25.93 14.67 25.82 15.01C25.91 15.09 26.05 15.16 26.22 15.16ZM34.75 11.13L34.75 11.72L38.84 11.72L38.84 11.13ZM46.86 14.24C46.76 14.43 46.59 14.46 46.49 14.46C46.20 14.46 46.09 14.28 46.09 13.76L46.07 8.30C46.07 7.98 45.88 7.78 45.60 7.78C45.36 7.78 45.21 7.90 45.12 7.98C45.26 8.43 45.26 8.92 45.26 11.33C45.26 13.85 44.04 14.67 43.15 14.67C42 14.67 41.58 14.03 41.58 12.12L41.57 8.27C41.57 7.97 41.37 7.78 41.09 7.78C40.87 7.78 40.73 7.88 40.61 7.98C40.71 8.32 40.75 8.83 40.75 9.37L40.75 12.21C40.77 14.42 41.45 15.20 42.94 15.20C44.02 15.20 44.93 14.55 45.32 13.41L45.32 13.85C45.32 14.70 45.64 15.13 46.30 15.13C46.75 15.13 47.01 14.94 47.01 14.62C47.01 14.49 46.97 14.38 46.86 14.24Z"></path></g><!----><g data-v-423bf9ae="" id="dce3e640-6f3b-4880-8379-c7fe012568f8" transform="matrix(2.363316237251188,0,0,2.363316237251188,12.065835209790762,-78.37377863279251)" stroke="none" fill="black"><path d="M44.614 46.07a14.66 14.66 0 0 1 1.272-1.454l-.707-.707-.707-.707c-4.268 4.268-5.91 10.543-4.286 16.377l1.927-.536a14.824 14.824 0 0 1 2.501-12.973z"></path><path d="M72.172 40.629l.262-.262-.707-.707a21.632 21.632 0 0 0-15.397-6.378c-4.77 0-9.292 1.545-13.038 4.361a4.18 4.18 0 0 0-4.185-3.895 4.191 4.191 0 0 0-2.982 1.235 4.19 4.19 0 0 0-1.236 2.982 4.187 4.187 0 0 0 3.93 4.19c-6.28 8.516-5.592 20.594 2.113 28.299l.707.707.127-.127c.448.211.965.33 1.565.33 3.816 0 10.96-4.581 17.777-11.397 3.969-3.969 7.275-8.143 9.31-11.754 1.915-3.399 2.499-5.983 1.754-7.584zm-34.634-1.094a2.204 2.204 0 0 1-.65-1.568c0-.592.231-1.149.65-1.568.419-.418.976-.649 1.568-.649s1.149.231 1.568.649a2.221 2.221 0 0 1 0 3.137c-.838.837-2.299.837-3.136-.001zm2.798 27.147c-5.623-7.729-4.958-18.64 2.009-25.607a19.646 19.646 0 0 1 13.984-5.792c4.279 0 8.348 1.355 11.725 3.854-4.001.803-10.393 5.115-16.528 11.25-3.969 3.969-7.275 8.143-9.31 11.754-.978 1.736-1.592 3.249-1.88 4.541zm28.338-19.449c-1.947 3.457-5.137 7.477-8.981 11.321-7.098 7.098-13.604 10.812-16.363 10.812-.438 0-.751-.091-.931-.271-.575-.575-.315-2.645 1.56-5.974 1.947-3.457 5.137-7.477 8.981-11.321 7.098-7.098 13.604-10.812 16.363-10.812.438 0 .751.091.931.271.575.575.316 2.645-1.56 5.974z"></path></g><!----></svg>