<svg data-v-423bf9ae="" xmlns="http://www.w3.org/2000/svg" viewBox="0 0 59.723601819054394 60" class="icon"><!----><!----><!----><!----><g data-v-423bf9ae="" id="b365bc1e-a266-411d-9bf1-70895fc179ff" transform="matrix(1.5755441581674587,0,0,1.5755441581674587,-54.479993679719584,-52.43713080320934)" stroke="none" fill="white"><path d="M44.614 46.07a14.66 14.66 0 0 1 1.272-1.454l-.707-.707-.707-.707c-4.268 4.268-5.91 10.543-4.286 16.377l1.927-.536a14.824 14.824 0 0 1 2.501-12.973z"></path><path d="M72.172 40.629l.262-.262-.707-.707a21.632 21.632 0 0 0-15.397-6.378c-4.77 0-9.292 1.545-13.038 4.361a4.18 4.18 0 0 0-4.185-3.895 4.191 4.191 0 0 0-2.982 1.235 4.19 4.19 0 0 0-1.236 2.982 4.187 4.187 0 0 0 3.93 4.19c-6.28 8.516-5.592 20.594 2.113 28.299l.707.707.127-.127c.448.211.965.33 1.565.33 3.816 0 10.96-4.581 17.777-11.397 3.969-3.969 7.275-8.143 9.31-11.754 1.915-3.399 2.499-5.983 1.754-7.584zm-34.634-1.094a2.204 2.204 0 0 1-.65-1.568c0-.592.231-1.149.65-1.568.419-.418.976-.649 1.568-.649s1.149.231 1.568.649a2.221 2.221 0 0 1 0 3.137c-.838.837-2.299.837-3.136-.001zm2.798 27.147c-5.623-7.729-4.958-18.64 2.009-25.607a19.646 19.646 0 0 1 13.984-5.792c4.279 0 8.348 1.355 11.725 3.854-4.001.803-10.393 5.115-16.528 11.25-3.969 3.969-7.275 8.143-9.31 11.754-.978 1.736-1.592 3.249-1.88 4.541zm28.338-19.449c-1.947 3.457-5.137 7.477-8.981 11.321-7.098 7.098-13.604 10.812-16.363 10.812-.438 0-.751-.091-.931-.271-.575-.575-.315-2.645 1.56-5.974 1.947-3.457 5.137-7.477 8.981-11.321 7.098-7.098 13.604-10.812 16.363-10.812.438 0 .751.091.931.271.575.575.316 2.645-1.56 5.974z"></path></g><!----></svg>